<svg xmlns="http://www.w3.org/2000/svg" viewBox="0 0 24 24" fill="none" stroke="pink" stroke-width="2" stroke-linecap="round" stroke-linejoin="round">
  <path d="M12 2C10.5 3 9 4.1 8 6C6 4.1 4 3 2 4C1 5 1 7 2 8C0 9 0 12 1 13C3 12 6 12 8 12C7.5 14 5 16 5 17C6 17 6.5 17 7 17C8 17 8 19 9 20C8 20 6 19 5 18C5 19.5 7 20 7 20C7 21 6.5 22 8 22C9.5 22 10 21 11 20C13 22 14 21 14 20C15 20 16 21 17 22C18.5 21 18 19 18 19C18 19 20 19 20 20C21 19.5 22 18 21 16C21 14 19 13 17 13C15 12 12 11 12 9C14 8 15 5 15 5C15.5 5 15 3 12 2Z"/>
</svg>